Coordinates
nRows=4
nColumns=38

# SIMM Motion File Header:
name Coordinates
datacolumns 38
datarows 4
otherdata 1
range 1.59200000000000010000 1.59500000000000020000

Units are S.I. units (second, meters, Newtons, ...)
Angles are in degrees.

endheader
time	pelvis_tilt	pelvis_list	pelvis_rotation	pelvis_tx	pelvis_ty	pelvis_tz	hip_flexion_r	hip_adduction_r	hip_rotation_r	knee_angle_r	ankle_angle_r	subtalar_angle_r	mtp_angle_r	hip_flexion_l	hip_adduction_l	hip_rotation_l	knee_angle_l	ankle_angle_l	subtalar_angle_l	mtp_angle_l	lumbar_extension	lumbar_bending	lumbar_rotation	arm_flex_r	arm_add_r	arm_rot_r	elbow_flex_r	pro_sup_r	wrist_flex_r	wrist_dev_r	arm_flex_l	arm_add_l	arm_rot_l	elbow_flex_l	pro_sup_l	wrist_flex_l	wrist_dev_l
      1.59200000000000010000	    -10.80022903214341000000	     -1.26825727662290850000	      4.72151918703762070000	      1.01473610852596050000	      1.02140649340956170000	     -0.34839467590100970000	     -0.86360086738204145000	      4.80959074870163230000	     -0.95827138397393385000	    -49.77172102904032900000	    -14.89791050824292300000	     -0.00000000000006133774	     -0.00000000000007290298	     31.28114146311377300000	      5.98922432186090870000	      2.89241736972724880000	     -8.98608212837413410000	      1.30879986730185860000	     -0.00000000000001540382	     -0.00000000000001928385	     -0.45678018235225543000	      2.05142118288796920000	      7.61270534716851350000	    -20.55760861586203300000	    -21.73842845275008500000	     -3.22783527603957370000	    121.83448651488276000000	    114.59010668771690000000	     -0.00000000000000145875	     -0.00000000000001583775	    -46.21646427632288800000	    -10.55660730974422500000	    -15.45335862104964300000	    120.90055917093746000000	    104.75918975681418000000	      0.00000000000001333654	      0.00000000000002703395
      1.59300000000000020000	    -10.82908582281961600000	     -1.27049365964310020000	      4.73640578403466690000	      1.01472445261446100000	      1.02076447129568780000	     -0.34836491969920075000	     -0.63746781983495260000	      4.80267038693234390000	     -0.95619748615888012000	    -50.31873027165053000000	    -14.79809683743764400000	     -0.00000000000006167808	     -0.00000000000007306517	     31.30582413062566300000	      6.00671564897526090000	      2.87882289226384950000	     -9.12061006115575880000	      1.31392039666865610000	     -0.00000000000001548198	     -0.00000000000001934356	     -0.41959093729456987000	      2.02749719631326690000	      7.56264851697378400000	    -20.65605382313601300000	    -21.70454152717951900000	     -3.26080254701212140000	    121.61796351871617000000	    114.51157150579824000000	     -0.00000000000000146461	     -0.00000000000001592913	    -46.12857554221435700000	    -10.55958902015980700000	    -15.44987082563063100000	    120.87116992732808000000	    104.77039773813952000000	      0.00000000000001339041	      0.00000000000002714400
      1.59400000000000010000	    -10.85853225372642300000	     -1.27195081553872890000	      4.75150573691047560000	      1.01471218319103420000	      1.02011239578927040000	     -0.34833623865939201000	     -0.40938601283457021000	      4.79319009659675290000	     -0.95829480534414024000	    -50.86630717127558700000	    -14.70053563368794500000	     -0.00000000000006201659	     -0.00000000000007322701	     31.33239256233729400000	      6.02467357473837150000	      2.86063502352313970000	     -9.26310929672740540000	      1.31295224597486040000	     -0.00000000000001555945	     -0.00000000000001940462	     -0.38149318895587814000	      2.00275026039772810000	      7.51173378646915510000	    -20.75511596466802200000	    -21.67061844923923200000	     -3.29420992723332380000	    121.39929254610200000000	    114.43346781291675000000	     -0.00000000000000147052	     -0.00000000000001602064	    -46.03965934645555800000	    -10.56366102681777300000	    -15.44525894430870000000	    120.84044919863747000000	    104.78060617800973000000	      0.00000000000001344423	      0.00000000000002725362
      1.59500000000000020000	    -10.88858292893249300000	     -1.27259277922559890000	      4.76683110297833590000	      1.01469923640742540000	      1.01945027014965170000	     -0.34830868108750529000	     -0.17938575760349609000	      4.78106633752198550000	     -0.96450934371534969000	    -51.41435807116455000000	    -14.60511480109419600000	     -0.00000000000006235549	     -0.00000000000007338822	     31.36092712616895600000	      6.04313684929832730000	      2.83777270947057760000	     -9.41365900074583980000	      1.30594344932003170000	     -0.00000000000001563785	     -0.00000000000001946732	     -0.34248257086417666000	      1.97713721026841190000	      7.45992714303012150000	    -20.85473476143665600000	    -21.63668439899413100000	     -3.32801081743252740000	    121.17847446881821000000	    114.35588717956213000000	     -0.00000000000000147621	     -0.00000000000001611188	    -45.94975936346148900000	    -10.56878753629643700000	    -15.43957101448720000000	    120.80841551890155000000	    104.78975809344470000000	      0.00000000000001349811	      0.00000000000002736353
